<mxfile host="app.diagrams.net" modified="2023-12-23T12:01:49.132Z" agent="Mozilla/5.0 (Windows NT 10.0; Win64; x64) AppleWebKit/537.36 (KHTML, like Gecko) Chrome/120.0.0.0 Safari/537.36" etag="dZPdQ325uu21qr-N3Ebj" version="22.1.11" type="device">
  <diagram name="Page-1" id="9361dd3d-8414-5efd-6122-117bd74ce7a7">
    <mxGraphModel dx="818" dy="333" grid="1" gridSize="10" guides="1" tooltips="1" connect="1" arrows="1" fold="1" page="0" pageScale="1.5" pageWidth="826" pageHeight="1169" background="none" math="0" shadow="0">
      <root>
        <mxCell id="0" />
        <mxCell id="1" parent="0" />
        <mxCell id="7yB0A4BCbSumPsn5vP-0-91" style="edgeStyle=orthogonalEdgeStyle;rounded=0;orthogonalLoop=1;jettySize=auto;html=1;entryX=0;entryY=0.5;entryDx=0;entryDy=0;" edge="1" parent="1" source="7yB0A4BCbSumPsn5vP-0-89" target="7yB0A4BCbSumPsn5vP-0-90">
          <mxGeometry relative="1" as="geometry" />
        </mxCell>
        <mxCell id="7yB0A4BCbSumPsn5vP-0-89" value="Client Enter to Store" style="html=1;whiteSpace=wrap;" vertex="1" parent="1">
          <mxGeometry x="160" width="110" height="50" as="geometry" />
        </mxCell>
        <mxCell id="7yB0A4BCbSumPsn5vP-0-95" style="edgeStyle=orthogonalEdgeStyle;rounded=0;orthogonalLoop=1;jettySize=auto;html=1;" edge="1" parent="1" target="7yB0A4BCbSumPsn5vP-0-94">
          <mxGeometry relative="1" as="geometry">
            <mxPoint x="375" y="80" as="sourcePoint" />
          </mxGeometry>
        </mxCell>
        <mxCell id="7yB0A4BCbSumPsn5vP-0-102" style="edgeStyle=orthogonalEdgeStyle;rounded=0;orthogonalLoop=1;jettySize=auto;html=1;entryX=0.5;entryY=0;entryDx=0;entryDy=0;" edge="1" parent="1" source="7yB0A4BCbSumPsn5vP-0-90" target="7yB0A4BCbSumPsn5vP-0-101">
          <mxGeometry relative="1" as="geometry" />
        </mxCell>
        <mxCell id="7yB0A4BCbSumPsn5vP-0-90" value="User Enter to System" style="html=1;whiteSpace=wrap;" vertex="1" parent="1">
          <mxGeometry x="320" width="110" height="50" as="geometry" />
        </mxCell>
        <mxCell id="7yB0A4BCbSumPsn5vP-0-98" style="edgeStyle=orthogonalEdgeStyle;rounded=0;orthogonalLoop=1;jettySize=auto;html=1;entryX=0.5;entryY=0;entryDx=0;entryDy=0;exitX=0.5;exitY=1;exitDx=0;exitDy=0;" edge="1" parent="1" source="7yB0A4BCbSumPsn5vP-0-92" target="7yB0A4BCbSumPsn5vP-0-96">
          <mxGeometry relative="1" as="geometry" />
        </mxCell>
        <mxCell id="7yB0A4BCbSumPsn5vP-0-99" style="edgeStyle=orthogonalEdgeStyle;rounded=0;orthogonalLoop=1;jettySize=auto;html=1;" edge="1" parent="1" source="7yB0A4BCbSumPsn5vP-0-92" target="7yB0A4BCbSumPsn5vP-0-97">
          <mxGeometry relative="1" as="geometry" />
        </mxCell>
        <mxCell id="7yB0A4BCbSumPsn5vP-0-92" value="Search at client" style="html=1;whiteSpace=wrap;" vertex="1" parent="1">
          <mxGeometry x="210" y="220" width="110" height="50" as="geometry" />
        </mxCell>
        <mxCell id="7yB0A4BCbSumPsn5vP-0-94" value="Order Mantinance" style="html=1;whiteSpace=wrap;" vertex="1" parent="1">
          <mxGeometry x="480" y="120" width="110" height="50" as="geometry" />
        </mxCell>
        <mxCell id="7yB0A4BCbSumPsn5vP-0-105" style="edgeStyle=orthogonalEdgeStyle;rounded=0;orthogonalLoop=1;jettySize=auto;html=1;entryX=0.5;entryY=0;entryDx=0;entryDy=0;exitX=0.5;exitY=1;exitDx=0;exitDy=0;" edge="1" parent="1" source="7yB0A4BCbSumPsn5vP-0-96" target="7yB0A4BCbSumPsn5vP-0-100">
          <mxGeometry relative="1" as="geometry" />
        </mxCell>
        <mxCell id="7yB0A4BCbSumPsn5vP-0-96" value="Add to System" style="html=1;whiteSpace=wrap;" vertex="1" parent="1">
          <mxGeometry x="90" y="340" width="110" height="50" as="geometry" />
        </mxCell>
        <mxCell id="7yB0A4BCbSumPsn5vP-0-104" style="edgeStyle=orthogonalEdgeStyle;rounded=0;orthogonalLoop=1;jettySize=auto;html=1;entryX=0.5;entryY=0;entryDx=0;entryDy=0;" edge="1" parent="1" source="7yB0A4BCbSumPsn5vP-0-97" target="7yB0A4BCbSumPsn5vP-0-100">
          <mxGeometry relative="1" as="geometry" />
        </mxCell>
        <mxCell id="7yB0A4BCbSumPsn5vP-0-97" value="Exists at System" style="html=1;whiteSpace=wrap;" vertex="1" parent="1">
          <mxGeometry x="320" y="340" width="110" height="50" as="geometry" />
        </mxCell>
        <mxCell id="7yB0A4BCbSumPsn5vP-0-107" style="edgeStyle=orthogonalEdgeStyle;rounded=0;orthogonalLoop=1;jettySize=auto;html=1;entryX=0.5;entryY=0;entryDx=0;entryDy=0;" edge="1" parent="1" source="7yB0A4BCbSumPsn5vP-0-100" target="7yB0A4BCbSumPsn5vP-0-106">
          <mxGeometry relative="1" as="geometry" />
        </mxCell>
        <mxCell id="7yB0A4BCbSumPsn5vP-0-100" value="Added to System" style="html=1;whiteSpace=wrap;" vertex="1" parent="1">
          <mxGeometry x="210" y="440" width="110" height="50" as="geometry" />
        </mxCell>
        <mxCell id="7yB0A4BCbSumPsn5vP-0-103" style="edgeStyle=orthogonalEdgeStyle;rounded=0;orthogonalLoop=1;jettySize=auto;html=1;" edge="1" parent="1" source="7yB0A4BCbSumPsn5vP-0-101" target="7yB0A4BCbSumPsn5vP-0-92">
          <mxGeometry relative="1" as="geometry" />
        </mxCell>
        <mxCell id="7yB0A4BCbSumPsn5vP-0-101" value="Show our Products" style="html=1;whiteSpace=wrap;" vertex="1" parent="1">
          <mxGeometry x="210" y="120" width="110" height="50" as="geometry" />
        </mxCell>
        <mxCell id="7yB0A4BCbSumPsn5vP-0-110" style="edgeStyle=orthogonalEdgeStyle;rounded=0;orthogonalLoop=1;jettySize=auto;html=1;entryX=0.5;entryY=0;entryDx=0;entryDy=0;" edge="1" parent="1" target="7yB0A4BCbSumPsn5vP-0-108">
          <mxGeometry relative="1" as="geometry">
            <mxPoint x="265" y="610" as="sourcePoint" />
          </mxGeometry>
        </mxCell>
        <mxCell id="7yB0A4BCbSumPsn5vP-0-111" style="edgeStyle=orthogonalEdgeStyle;rounded=0;orthogonalLoop=1;jettySize=auto;html=1;" edge="1" parent="1" source="7yB0A4BCbSumPsn5vP-0-106" target="7yB0A4BCbSumPsn5vP-0-109">
          <mxGeometry relative="1" as="geometry" />
        </mxCell>
        <mxCell id="7yB0A4BCbSumPsn5vP-0-106" value="Select Project Type" style="html=1;whiteSpace=wrap;" vertex="1" parent="1">
          <mxGeometry x="210" y="530" width="110" height="50" as="geometry" />
        </mxCell>
        <mxCell id="7yB0A4BCbSumPsn5vP-0-114" style="edgeStyle=orthogonalEdgeStyle;rounded=0;orthogonalLoop=1;jettySize=auto;html=1;entryX=0.5;entryY=0;entryDx=0;entryDy=0;exitX=0.5;exitY=1;exitDx=0;exitDy=0;" edge="1" parent="1" source="7yB0A4BCbSumPsn5vP-0-108" target="7yB0A4BCbSumPsn5vP-0-112">
          <mxGeometry relative="1" as="geometry" />
        </mxCell>
        <mxCell id="7yB0A4BCbSumPsn5vP-0-108" value="Create Offer Price" style="html=1;whiteSpace=wrap;" vertex="1" parent="1">
          <mxGeometry x="90" y="640" width="110" height="50" as="geometry" />
        </mxCell>
        <mxCell id="7yB0A4BCbSumPsn5vP-0-129" style="edgeStyle=orthogonalEdgeStyle;rounded=0;orthogonalLoop=1;jettySize=auto;html=1;entryX=1;entryY=0.75;entryDx=0;entryDy=0;" edge="1" parent="1" source="7yB0A4BCbSumPsn5vP-0-109" target="7yB0A4BCbSumPsn5vP-0-123">
          <mxGeometry relative="1" as="geometry">
            <Array as="points">
              <mxPoint x="500" y="665" />
              <mxPoint x="500" y="1138" />
            </Array>
          </mxGeometry>
        </mxCell>
        <mxCell id="7yB0A4BCbSumPsn5vP-0-109" value="Create Indexaction" style="html=1;whiteSpace=wrap;" vertex="1" parent="1">
          <mxGeometry x="320" y="640" width="110" height="50" as="geometry" />
        </mxCell>
        <mxCell id="7yB0A4BCbSumPsn5vP-0-117" style="edgeStyle=orthogonalEdgeStyle;rounded=0;orthogonalLoop=1;jettySize=auto;html=1;exitX=0.5;exitY=1;exitDx=0;exitDy=0;" edge="1" parent="1" source="7yB0A4BCbSumPsn5vP-0-112" target="7yB0A4BCbSumPsn5vP-0-115">
          <mxGeometry relative="1" as="geometry" />
        </mxCell>
        <mxCell id="7yB0A4BCbSumPsn5vP-0-118" style="edgeStyle=orthogonalEdgeStyle;rounded=0;orthogonalLoop=1;jettySize=auto;html=1;exitX=0.5;exitY=1;exitDx=0;exitDy=0;" edge="1" parent="1" source="7yB0A4BCbSumPsn5vP-0-112" target="7yB0A4BCbSumPsn5vP-0-116">
          <mxGeometry relative="1" as="geometry" />
        </mxCell>
        <mxCell id="7yB0A4BCbSumPsn5vP-0-112" value="Send Document via Phone" style="html=1;whiteSpace=wrap;" vertex="1" parent="1">
          <mxGeometry x="210" y="760" width="110" height="50" as="geometry" />
        </mxCell>
        <mxCell id="7yB0A4BCbSumPsn5vP-0-120" style="edgeStyle=orthogonalEdgeStyle;rounded=0;orthogonalLoop=1;jettySize=auto;html=1;" edge="1" parent="1" source="7yB0A4BCbSumPsn5vP-0-115" target="7yB0A4BCbSumPsn5vP-0-119">
          <mxGeometry relative="1" as="geometry" />
        </mxCell>
        <mxCell id="7yB0A4BCbSumPsn5vP-0-115" value="Accept Price" style="html=1;whiteSpace=wrap;" vertex="1" parent="1">
          <mxGeometry x="90" y="880" width="110" height="50" as="geometry" />
        </mxCell>
        <mxCell id="7yB0A4BCbSumPsn5vP-0-122" style="edgeStyle=orthogonalEdgeStyle;rounded=0;orthogonalLoop=1;jettySize=auto;html=1;entryX=0.5;entryY=0;entryDx=0;entryDy=0;" edge="1" parent="1" source="7yB0A4BCbSumPsn5vP-0-116" target="7yB0A4BCbSumPsn5vP-0-119">
          <mxGeometry relative="1" as="geometry" />
        </mxCell>
        <mxCell id="7yB0A4BCbSumPsn5vP-0-116" value="Reject Price" style="html=1;whiteSpace=wrap;" vertex="1" parent="1">
          <mxGeometry x="350" y="880" width="110" height="50" as="geometry" />
        </mxCell>
        <mxCell id="7yB0A4BCbSumPsn5vP-0-124" style="edgeStyle=orthogonalEdgeStyle;rounded=0;orthogonalLoop=1;jettySize=auto;html=1;entryX=0.5;entryY=0;entryDx=0;entryDy=0;" edge="1" parent="1" source="7yB0A4BCbSumPsn5vP-0-119" target="7yB0A4BCbSumPsn5vP-0-123">
          <mxGeometry relative="1" as="geometry" />
        </mxCell>
        <mxCell id="7yB0A4BCbSumPsn5vP-0-119" value="Create indexaction" style="html=1;whiteSpace=wrap;" vertex="1" parent="1">
          <mxGeometry x="220" y="1000" width="110" height="50" as="geometry" />
        </mxCell>
        <mxCell id="7yB0A4BCbSumPsn5vP-0-127" style="edgeStyle=orthogonalEdgeStyle;rounded=0;orthogonalLoop=1;jettySize=auto;html=1;entryX=0.5;entryY=0;entryDx=0;entryDy=0;exitX=0.5;exitY=1;exitDx=0;exitDy=0;" edge="1" parent="1" source="7yB0A4BCbSumPsn5vP-0-123" target="7yB0A4BCbSumPsn5vP-0-125">
          <mxGeometry relative="1" as="geometry" />
        </mxCell>
        <mxCell id="7yB0A4BCbSumPsn5vP-0-128" style="edgeStyle=orthogonalEdgeStyle;rounded=0;orthogonalLoop=1;jettySize=auto;html=1;exitX=0.5;exitY=1;exitDx=0;exitDy=0;" edge="1" parent="1" source="7yB0A4BCbSumPsn5vP-0-123" target="7yB0A4BCbSumPsn5vP-0-126">
          <mxGeometry relative="1" as="geometry" />
        </mxCell>
        <mxCell id="7yB0A4BCbSumPsn5vP-0-123" value="Send Document Via Phone" style="html=1;whiteSpace=wrap;" vertex="1" parent="1">
          <mxGeometry x="220" y="1100" width="110" height="50" as="geometry" />
        </mxCell>
        <mxCell id="7yB0A4BCbSumPsn5vP-0-135" style="edgeStyle=orthogonalEdgeStyle;rounded=0;orthogonalLoop=1;jettySize=auto;html=1;entryX=0.5;entryY=0;entryDx=0;entryDy=0;" edge="1" parent="1" source="7yB0A4BCbSumPsn5vP-0-125">
          <mxGeometry relative="1" as="geometry">
            <mxPoint x="135" y="1360" as="targetPoint" />
          </mxGeometry>
        </mxCell>
        <mxCell id="7yB0A4BCbSumPsn5vP-0-125" value="Accept Price" style="html=1;whiteSpace=wrap;" vertex="1" parent="1">
          <mxGeometry x="80" y="1230" width="110" height="50" as="geometry" />
        </mxCell>
        <mxCell id="7yB0A4BCbSumPsn5vP-0-131" style="edgeStyle=orthogonalEdgeStyle;rounded=0;orthogonalLoop=1;jettySize=auto;html=1;entryX=0.5;entryY=0;entryDx=0;entryDy=0;" edge="1" parent="1" source="7yB0A4BCbSumPsn5vP-0-126" target="7yB0A4BCbSumPsn5vP-0-130">
          <mxGeometry relative="1" as="geometry" />
        </mxCell>
        <mxCell id="7yB0A4BCbSumPsn5vP-0-126" value="Reject Price" style="html=1;whiteSpace=wrap;" vertex="1" parent="1">
          <mxGeometry x="380" y="1230" width="110" height="50" as="geometry" />
        </mxCell>
        <mxCell id="7yB0A4BCbSumPsn5vP-0-133" style="edgeStyle=orthogonalEdgeStyle;rounded=0;orthogonalLoop=1;jettySize=auto;html=1;" edge="1" parent="1" source="7yB0A4BCbSumPsn5vP-0-130" target="7yB0A4BCbSumPsn5vP-0-132">
          <mxGeometry relative="1" as="geometry" />
        </mxCell>
        <mxCell id="7yB0A4BCbSumPsn5vP-0-130" value="Pay Document Price" style="html=1;whiteSpace=wrap;" vertex="1" parent="1">
          <mxGeometry x="380" y="1360" width="110" height="50" as="geometry" />
        </mxCell>
        <mxCell id="7yB0A4BCbSumPsn5vP-0-132" value="Confirm Money Accepting" style="html=1;whiteSpace=wrap;" vertex="1" parent="1">
          <mxGeometry x="380" y="1470" width="110" height="50" as="geometry" />
        </mxCell>
        <mxCell id="7yB0A4BCbSumPsn5vP-0-141" style="edgeStyle=orthogonalEdgeStyle;rounded=0;orthogonalLoop=1;jettySize=auto;html=1;" edge="1" parent="1" target="7yB0A4BCbSumPsn5vP-0-140">
          <mxGeometry relative="1" as="geometry">
            <mxPoint x="135" y="1520" as="sourcePoint" />
          </mxGeometry>
        </mxCell>
        <mxCell id="7yB0A4BCbSumPsn5vP-0-138" value="" style="ellipse;html=1;shape=endState;fillColor=#000000;strokeColor=#ff0000;" vertex="1" parent="1">
          <mxGeometry x="420" y="1600" width="30" height="30" as="geometry" />
        </mxCell>
        <mxCell id="7yB0A4BCbSumPsn5vP-0-139" style="edgeStyle=orthogonalEdgeStyle;rounded=0;orthogonalLoop=1;jettySize=auto;html=1;entryX=0.607;entryY=0.211;entryDx=0;entryDy=0;entryPerimeter=0;" edge="1" parent="1" source="7yB0A4BCbSumPsn5vP-0-132" target="7yB0A4BCbSumPsn5vP-0-138">
          <mxGeometry relative="1" as="geometry" />
        </mxCell>
        <mxCell id="7yB0A4BCbSumPsn5vP-0-143" style="edgeStyle=orthogonalEdgeStyle;rounded=0;orthogonalLoop=1;jettySize=auto;html=1;" edge="1" parent="1" source="7yB0A4BCbSumPsn5vP-0-140" target="7yB0A4BCbSumPsn5vP-0-142">
          <mxGeometry relative="1" as="geometry" />
        </mxCell>
        <mxCell id="7yB0A4BCbSumPsn5vP-0-140" value="Project Order" style="html=1;whiteSpace=wrap;" vertex="1" parent="1">
          <mxGeometry x="80" y="1360" width="110" height="50" as="geometry" />
        </mxCell>
        <mxCell id="7yB0A4BCbSumPsn5vP-0-145" style="edgeStyle=orthogonalEdgeStyle;rounded=0;orthogonalLoop=1;jettySize=auto;html=1;entryX=0.5;entryY=0;entryDx=0;entryDy=0;" edge="1" parent="1" source="7yB0A4BCbSumPsn5vP-0-142" target="7yB0A4BCbSumPsn5vP-0-144">
          <mxGeometry relative="1" as="geometry" />
        </mxCell>
        <mxCell id="7yB0A4BCbSumPsn5vP-0-142" value="Project Submission" style="html=1;whiteSpace=wrap;" vertex="1" parent="1">
          <mxGeometry x="80" y="1470" width="110" height="50" as="geometry" />
        </mxCell>
        <mxCell id="7yB0A4BCbSumPsn5vP-0-148" style="edgeStyle=orthogonalEdgeStyle;rounded=0;orthogonalLoop=1;jettySize=auto;html=1;entryX=0.5;entryY=0;entryDx=0;entryDy=0;" edge="1" parent="1" source="7yB0A4BCbSumPsn5vP-0-144" target="7yB0A4BCbSumPsn5vP-0-147">
          <mxGeometry relative="1" as="geometry" />
        </mxCell>
        <mxCell id="7yB0A4BCbSumPsn5vP-0-144" value="Client Feedback" style="html=1;whiteSpace=wrap;" vertex="1" parent="1">
          <mxGeometry x="80" y="1580" width="110" height="50" as="geometry" />
        </mxCell>
        <mxCell id="7yB0A4BCbSumPsn5vP-0-146" value="" style="ellipse;html=1;shape=endState;fillColor=#000000;strokeColor=#ff0000;" vertex="1" parent="1">
          <mxGeometry x="120" y="1810" width="30" height="30" as="geometry" />
        </mxCell>
        <mxCell id="7yB0A4BCbSumPsn5vP-0-149" style="edgeStyle=orthogonalEdgeStyle;rounded=0;orthogonalLoop=1;jettySize=auto;html=1;" edge="1" parent="1" source="7yB0A4BCbSumPsn5vP-0-147" target="7yB0A4BCbSumPsn5vP-0-146">
          <mxGeometry relative="1" as="geometry" />
        </mxCell>
        <mxCell id="7yB0A4BCbSumPsn5vP-0-147" value="Accept Promo code&amp;nbsp;" style="html=1;whiteSpace=wrap;" vertex="1" parent="1">
          <mxGeometry x="80" y="1710" width="110" height="50" as="geometry" />
        </mxCell>
      </root>
    </mxGraphModel>
  </diagram>
</mxfile>
